<svg xmlns="http://www.w3.org/2000/svg" version="1.1" xmlns:xlink="http://www.w3.org/1999/xlink" xmlns:svgjs="http://svgjs.dev/svgjs" width="1000" height="1000" viewBox="0 0 1000 1000"><rect width="1000" height="1000" fill="#fafafa"></rect><g transform="matrix(0.7,0,0,0.7,150.0000000000001,106.25)"><svg viewBox="0 0 320 360" data-background-color="#fafafa" preserveAspectRatio="xMidYMid meet" height="1125" width="1000" xmlns="http://www.w3.org/2000/svg" xmlns:xlink="http://www.w3.org/1999/xlink"><g id="tight-bounds" transform="matrix(1,0,0,1,0,0)"><svg viewBox="0 0 320 360" height="360" width="320"><g><svg></svg></g><g><svg viewBox="0 0 320 360" height="360" width="320"><g><path xmlns="http://www.w3.org/2000/svg" d="M20.961 227.22l3.726 4.658-1.863-6.056c-0.466-2.795-3.726 0.466-1.863 1.398M25.153 224.425c1.397 2.329 2.795 4.658 2.795 6.987 0 3.261 2.795 4.658 5.123 5.589-3.261-3.726-5.124-13.974-7.918-12.576M204.017 26.929c7.918 0 15.371-0.932 23.756 0.931 20.495 5.124 37.729 15.371 49.374 29.811l32.606 52.169c1.397 13.042 4.192 27.482 3.726 43.319 3.261 0 2.795-4.658 6.521-5.59-3.726 9.316-5.59 20.961-6.521 34.469-2.329-7.453 0-18.632 0.466-24.687-3.261 5.124-5.124 1.397-5.124-0.932 0.466-3.726-1.397-3.261-2.795-4.658-5.124-4.658-8.384-9.782-12.11-17.7 2.329-6.055 2.795-14.905-4.658-19.563-2.329-1.397-5.124-3.726-6.521-7.453-1.863-5.124-5.124-11.179-4.193-19.097 0.466-2.329-6.987 5.124-11.179 1.863-18.166-12.576-36.332-27.016-58.224-39.127-11.645 0-20.029-4.192-24.221-9.316-3.726-4.658-0.932-10.713 4.658-11.179 3.261 0 6.987-0.932 9.782 0.932 0.466-1.863 2.329-4.192 4.657-4.192M157.904 16.215l0.932 0.466c4.658 0.932 6.987 7.453 12.11 5.124 0 3.261 0.466 6.521-0.466 8.85-1.397 3.726-5.59 3.726-8.85 3.726-31.208-1.863-49.374 11.179-68.471 22.358-5.124 3.261-10.713 5.59-14.906 9.782-20.029 18.632-41.921 35.866-47.045 70.335l-4.192 38.195c-0.466 4.192-5.124 8.384-4.192 13.508l3.26 22.824c-3.261-3.261-5.124 0.932-4.192 2.795 0.466 1.397 2.329 6.055 5.124 1.863 3.726 6.987 7.453 20.495 12.576 26.55 15.837 18.632 36.332 35.4 53.101 52.169 4.192-0.932 7.453-0.932 8.384-3.727 1.397 2.795-1.397 5.59-3.726 6.056 7.453 4.658 15.837 8.85 27.016 9.781 14.44 0.932 27.948 3.261 40.524 6.522 6.521-1.863 13.042-2.795 20.029-3.261 2.329 0 3.726-3.726 6.521-4.658l0.466-4.658c2.795 4.192 2.329-1.397 0.466-4.192 3.261 2.795 4.192 5.124 5.589 6.987 0-1.397 3.726-6.521 3.727-0.466l0.931-6.055c1.397-0.932 1.863 5.124 3.261 0.931 1.397-4.192 4.192-0.932 6.987-2.329-0.932 1.863-0.466 5.59 2.794 3.261l3.727-3.261c2.329 5.59 6.055 3.261 7.918 2.329 20.495-13.042 40.99-28.413 60.553-43.784l-0.466 6.055 2.329-7.453c2.329 2.329 4.192 0.466 5.124-0.931 2.795-4.658 6.521-9.316 12.577-13.508-7.453 20.029-16.303 35.866-27.482 48.908l-4.658 5.59c0 3.261-0.932 7.453-4.658 7.918-1.863 0.466-5.59-0.932-8.384 1.863-1.397 1.863 3.261 5.59-0.466 2.795-3.261-2.329-6.521 0-10.248 0.932-2.795 0.932 1.863 3.726 2.795 5.589 0.932 1.863 1.863 3.726 1.398 6.056l-5.124-5.59c-6.055 3.261-9.782 9.316-14.906 13.974-2.329 1.863-1.397 5.124-1.397 7.918-3.261 0-6.987-0.932-8.85 0.932-1.397 1.863-0.932 4.658-0.932 7.453-4.658-0.466-5.124-7.453-9.315-6.056-4.192 0.932-8.85 1.397-12.577 3.727 2.795 5.59-4.658 2.329-3.726 3.26-6.987-4.192-13.042-7.453-20.495-4.658-15.837-5.124-35.4-2.795-49.84-0.931 0-2.329 0.466-4.658-0.466-5.124-0.932 2.329-3.726 1.397-3.26 1.397-8.85-6.055-17.7-9.782-27.016-14.905-8.384 0.932-16.303-3.261-18.632-5.59-6.521-6.055-13.974-2.795-20.029-4.192-13.042-3.261-17.7-16.769-19.098-26.084-0.932-4.658-4.658-6.521-6.055-6.056-6.055-19.563-15.371-37.263-22.824-55.429-1.863-4.658-1.397-9.316-1.397-14.44 2.329 0.932 4.658 0.466 4.192-2.794-2.329-15.371-7.918-27.016-13.974-38.195 3.261-15.837 3.726-34.469 11.179-48.443 6.521-12.576 18.632-19.098 27.016-29.811 2.795-3.726 2.795-8.85 5.59-12.11 9.316-9.316 18.632-19.098 28.879-27.482 4.658-3.726 10.247 0 17.234-1.397 2.329-8.384 11.645-15.837 20.495-13.508 3.726 0.932 11.179-8.85 13.508-9.782 3.726-1.397 1.863 3.726 1.863 6.987 8.85-6.987 20.961-10.713 32.14-14.906" fill="#130912" fill-rule="nonzero" stroke="none" stroke-width="1" stroke-linecap="butt" stroke-linejoin="miter" stroke-miterlimit="10" stroke-dasharray="" stroke-dashoffset="0" font-family="none" font-weight="none" font-size="none" text-anchor="none" style="mix-blend-mode: normal" data-fill-palette-color="tertiary"></path></g><g transform="matrix(1,0,0,1,64,166.39885222381636)"><svg viewBox="0 0 192 27.202295552367286" height="27.202295552367286" width="192"><g><svg viewBox="0 0 192 27.202295552367286" height="27.202295552367286" width="192"><g><svg viewBox="0 0 192 27.202295552367286" height="27.202295552367286" width="192"><g><svg viewBox="0 0 192 27.202295552367286" height="27.202295552367286" width="192"><g id="textblocktransform"><svg viewBox="0 0 192 27.202295552367286" height="27.202295552367286" width="192" id="textblock"><g><svg viewBox="0 0 192 27.202295552367286" height="27.202295552367286" width="192"><g transform="matrix(1,0,0,1,0,0)"><svg width="192" viewBox="2 -39 278.7799987792969 39.5" height="27.202295552367286" data-palette-color="#130912"><path d="M15.9-9.05L15.9-1.45Q15.9-0.8 12.85-0.4 9.8 0 6.75 0 3.7 0 2.85-0.35 2-0.7 2-1.45L2-1.45 2-33.6Q2-36 16.4-36L16.4-36Q25.1-36 27.9-34.8L27.9-34.8Q31.3-33.4 32.5-31L32.5-31Q34.1-27.9 34.1-23.05L34.1-23.05Q34.1-16.4 31.8-13.4L31.8-13.4Q30.15-11.2 28.5-10.55 26.85-9.9 25.78-9.63 24.7-9.35 23.1-9.2L23.1-9.2Q20.9-9 17.1-9L17.1-9 15.9-9.05ZM15.95-27.6L15.95-17.35 17.15-17.35Q18.1-17.35 18.65-17.63 19.2-17.9 19.63-19.13 20.05-20.35 20.05-22.58 20.05-24.8 19.58-25.98 19.1-27.15 18.63-27.38 18.15-27.6 17.5-27.6L17.5-27.6 15.95-27.6ZM46.6 0.45L46.6 0.45Q42.05 0.45 39.45-1.7L39.45-1.7Q38.4-2.6 37.62-4.35 36.85-6.1 36.85-8.45 36.85-10.8 37.97-12.55 39.1-14.3 40.7-15.25 42.3-16.2 44.45-16.8L44.45-16.8Q47.7-17.65 51.6-17.65L51.6-17.65 53.25-17.65Q53.25-19.7 51.85-20.55L51.85-20.55Q51.25-20.9 50.02-20.9 48.8-20.9 47.07-20.25 45.35-19.6 44.2-18.93 43.05-18.25 42.65-18.25L42.65-18.25Q41.75-18.25 40.2-20.63 38.65-23 38.65-24.95L38.65-24.95Q38.65-25.6 40.5-26.65 42.35-27.7 45.72-28.58 49.1-29.45 52.3-29.45 55.5-29.45 57.82-28.93 60.15-28.4 61.62-27.65 63.1-26.9 64.12-25.65 65.15-24.4 65.67-23.4 66.2-22.4 66.45-20.8L66.45-20.8Q66.8-18.95 66.8-16.25L66.8-16.25 66.8-1.2Q66.8-0.65 64.12-0.33 61.45 0 58.82 0 56.2 0 55.42-0.15 54.65-0.3 54.5-0.5 54.35-0.7 54.25-1.2L54.25-1.2 53.85-4.05 53.45-4.05Q52.2 0.45 46.6 0.45ZM53.3-7.85L53.3-7.85 53.3-13.7Q52-13.7 51.2-12.6 50.4-11.5 50.4-10.1L50.4-10.1Q50.4-6.8 51.9-6.8L51.9-6.8Q52.55-6.8 52.92-7.13 53.3-7.45 53.3-7.85ZM100.45-16.6L100.45-16.6 100.45-1.2Q100.45-0.65 97.6-0.33 94.75 0 91.72 0 88.7 0 87.82-0.28 86.95-0.55 86.95-1.2L86.95-1.2 86.95-17.1Q86.95-19.35 86.77-20.05 86.6-20.75 86.45-21.3L86.45-21.3Q86.1-22.25 85.2-22.25L85.2-22.25Q83.8-22.25 83.8-20.9L83.8-20.9 83.8-1.2Q83.8-0.65 80.97-0.33 78.15 0 75.12 0 72.1 0 71.2-0.28 70.3-0.55 70.3-1.2L70.3-1.2 70.3-25.85Q70.3-26.9 73.17-27.95 76.05-29 79.25-29 82.45-29 82.85-27.15L82.85-27.15 83.3-24.95 83.65-24.95Q85.1-27.85 88.65-29L88.65-29Q90.1-29.45 91.85-29.45L91.85-29.45Q96.9-29.45 98.67-26.43 100.45-23.4 100.45-16.6ZM117.69-25.85L117.69-25.85 117.69-1.2Q117.69-0.65 114.82-0.33 111.94 0 108.92 0 105.89 0 105.02-0.28 104.14-0.55 104.14-1.2L104.14-1.2 104.14-24.95Q104.14-26.05 106.97-27.13 109.79-28.2 113.14-28.2L113.14-28.2Q117.69-28.2 117.69-25.85ZM110.89-39L110.89-39Q114.19-39 116.07-38.02 117.94-37.05 117.94-34.5L117.94-34.5Q117.94-30 110.94-30 103.94-30 103.94-34.5 103.94-39 110.89-39ZM143.49-16.5L137.59-16.5 137.59-1.2Q137.59-0.65 134.84-0.33 132.09 0 128.09 0 124.09 0 124.09-1.2L124.09-1.2 124.09-16.5 121.54-16.5Q120.19-16.5 120.19-21.05L120.19-21.05Q120.19-22.85 120.82-24.43 121.44-26 122.44-26L122.44-26 124.09-26Q124.09-29.35 125.07-31.85 126.04-34.35 127.42-35.68 128.79-37 130.74-37.8L130.74-37.8Q133.64-39 137.34-39L137.34-39Q146.64-39 146.64-35.95L146.64-35.95Q146.64-32.65 145.99-30.55 145.34-28.45 144.24-28.45L144.24-28.45Q143.79-28.45 142.57-28.78 141.34-29.1 140.24-29.1L140.24-29.1Q137.34-29.1 137.34-27.1L137.34-27.1Q137.34-26.6 137.59-26L137.59-26 144.24-26Q145.59-26 145.59-21.6L145.59-21.6Q145.59-19.65 145.02-18.07 144.44-16.5 143.49-16.5L143.49-16.5ZM164.19-11.3L162.54-11.3Q162.54-8.05 165.64-8.05L165.64-8.05Q167.44-8.05 170.34-9.28 173.24-10.5 173.39-10.5L173.39-10.5Q174.34-10.5 175.89-7.65 177.44-4.8 177.44-3.45L177.44-3.45Q177.44-1.5 173.44-0.5 169.44 0.5 165.61 0.5 161.79 0.5 159.21-0.1 156.64-0.7 155.01-1.63 153.39-2.55 152.16-3.9 150.94-5.25 150.34-6.48 149.74-7.7 149.39-9.2L149.39-9.2Q148.89-11.4 148.89-13.75L148.89-13.75Q148.89-22.85 153.64-26.3L153.64-26.3Q155.99-28.05 158.89-28.75 161.79-29.45 165.74-29.45L165.74-29.45Q178.39-29.45 178.39-20.65L178.39-20.65Q178.39-11.3 164.19-11.3L164.19-11.3ZM162.44-18.6L162.44-18.6 162.44-15.3Q163.89-15.3 164.81-16.45 165.74-17.6 165.74-19.25L165.74-19.25Q165.74-22.25 164.19-22.25L164.19-22.25Q162.44-22.25 162.44-18.6ZM190.79 0.45L190.79 0.45Q188.94 0.45 187.34-0.1 185.74-0.65 184.71-1.45 183.69-2.25 182.94-3.6 182.19-4.95 181.79-6.18 181.39-7.4 181.19-9.2L181.19-9.2Q180.89-11.85 180.89-15.25L180.89-15.25Q180.89-22.2 183.44-25.83 185.99-29.45 190.44-29.45L190.44-29.45Q194.99-29.45 197.04-27.3L197.04-27.3Q197.49-26.8 197.74-26.1L197.74-26.1 198.14-26.1 197.54-29.55 197.54-35.8Q197.54-36.9 200.34-37.95 203.14-39 206.39-39L206.39-39Q209.79-39 210.74-37.7L210.74-37.7Q211.09-37.2 211.09-36.7L211.09-36.7 211.09-1.2Q211.09-0.65 208.31-0.33 205.54 0 202.96 0 200.39 0 199.66-0.18 198.94-0.35 198.76-0.55 198.59-0.75 198.54-1.2L198.54-1.2 198.14-4.05 197.74-4.05Q197.29-2.3 195.94-1.1L195.94-1.1Q194.24 0.45 190.79 0.45ZM196.39-6.85L196.39-6.85Q197.19-6.85 197.59-7.85L197.59-7.85 197.59-21.2Q197.59-21.7 197.06-21.98 196.54-22.25 196.14-22.25L196.14-22.25Q194.44-22.25 194.44-14.45L194.44-14.45Q194.44-10.3 194.91-8.58 195.39-6.85 196.39-6.85ZM229.98 0.45L229.98 0.45Q226.23 0.45 223.53-0.2 220.83-0.85 218.63-2.5L218.63-2.5Q214.08-5.8 214.08-14.8L214.08-14.8Q214.08-22.8 218.73-26.25L218.73-26.25Q223.08-29.45 229.98-29.45L229.98-29.45Q232.93-29.45 235.03-29.18 237.13-28.9 239.31-28 241.48-27.1 242.81-25.55 244.13-24 244.98-21.28 245.83-18.55 245.83-14.8L245.83-14.8Q245.83-7.2 241.53-3.38 237.23 0.45 229.98 0.45ZM228.23-9.3Q228.58-7.5 228.96-7.15 229.33-6.8 229.96-6.8 230.58-6.8 230.96-7.15 231.33-7.5 231.66-9.3 231.98-11.1 231.98-13.83 231.98-16.55 231.86-18.03 231.73-19.5 231.56-20.3 231.38-21.1 231.08-21.55L231.08-21.55Q230.63-22.2 230.01-22.2 229.38-22.2 228.98-21.83 228.58-21.45 228.23-19.63 227.88-17.8 227.88-14.45 227.88-11.1 228.23-9.3ZM247.33-25.45L247.33-25.45Q247.33-25.95 248.78-26.78 250.23-27.6 252.73-28.3 255.23-29 257.63-29L257.63-29Q262.48-29 262.63-26.65L262.63-26.65 263.88-10.75 264.53-10.75 265.63-25.85Q265.73-27.1 269.08-28.05 272.43-29 274.98-29 277.53-29 278.81-28.55 280.08-28.1 280.43-27.63 280.78-27.15 280.78-26.8 280.78-26.45 278.66-21.65 276.53-16.85 270.18-1.2L270.18-1.2Q269.68 0 262.03 0L262.03 0Q259.63 0 258.88-0.28 258.13-0.55 257.88-1.2L257.88-1.2Q254.43-9.9 250.88-17.57 247.33-25.25 247.33-25.45Z" opacity="1" transform="matrix(1,0,0,1,0,0)" fill="#130912" class="undefined-text-0" data-fill-palette-color="primary" id="text-0"></path></svg></g></svg></g></svg></g></svg></g><g></g></svg></g></svg></g></svg></g></svg></g><defs></defs></svg><rect width="320" height="360" fill="none" stroke="none" visibility="hidden"></rect></g></svg></g></svg>